<?xml version="1.0" standalone="no"?>
<!DOCTYPE svg PUBLIC "-//W3C//DTD SVG 20010904//EN"
 "http://www.w3.org/TR/2001/REC-SVG-20010904/DTD/svg10.dtd">
<svg version="1.0" xmlns="http://www.w3.org/2000/svg"
 width="500.000000pt" height="500.000000pt" viewBox="0 0 500.000000 500.000000"
 preserveAspectRatio="xMidYMid meet">

<g transform="translate(0.000000,500.000000) scale(0.100000,-0.100000)"
fill="#000000" stroke="none">
<path d="M2240 4983 c-102 -11 -296 -48 -405 -78 -569 -156 -1065 -513 -1404
-1010 -215 -315 -355 -684 -406 -1068 -19 -151 -20 -483 -1 -637 91 -726 488
-1366 1101 -1774 131 -88 409 -225 560 -276 279 -95 434 -121 771 -127 221 -5
269 -3 400 16 268 39 501 112 744 232 647 321 1116 886 1306 1576 67 247 79
343 79 668 0 324 -10 403 -80 658 -261 954 -1066 1663 -2050 1807 -111 16
-185 20 -360 18 -121 -1 -236 -3 -255 -5z m-1720 -2183 c0 -165 4 -300 8 -300
4 0 35 21 67 48 69 55 146 147 181 215 l24 47 125 0 c88 0 125 -3 125 -12 0
-23 -71 -137 -117 -188 -60 -66 -150 -126 -223 -146 -82 -24 -84 -34 -5 -34
127 0 216 -52 268 -157 26 -51 81 -199 93 -246 l6 -28 -122 3 -123 3 -19 74
c-24 94 -64 176 -100 207 -35 28 -96 46 -146 42 l-37 -3 -3 -162 -2 -163 -110
0 -110 0 0 543 c0 299 3 547 7 550 3 4 53 7 110 7 l103 0 0 -300z m2370 -255
l0 -546 -92 3 -93 3 -3 113 c-3 123 -15 142 -39 60 -21 -73 -71 -139 -128
-168 -41 -21 -63 -25 -130 -25 -67 0 -88 5 -131 27 -126 66 -194 204 -194 396
0 202 80 351 217 403 46 17 168 12 215 -9 59 -26 112 -88 139 -161 40 -111 58
-88 35 45 -10 55 -16 149 -16 247 l0 157 110 0 110 0 0 -545z m-1168 255 c108
-40 176 -108 220 -219 18 -46 22 -77 22 -176 1 -149 -21 -218 -95 -299 -165
-180 -506 -164 -640 31 -62 90 -88 222 -69 353 25 175 141 300 308 330 71 13
192 4 254 -20z m1874 -1 c133 -50 214 -193 214 -380 l0 -59 -276 0 -277 0 7
-47 c15 -108 95 -169 212 -161 56 3 68 8 98 37 19 18 37 44 40 57 4 15 14 24
27 24 22 0 172 -30 177 -35 8 -8 -20 -75 -48 -116 -56 -84 -175 -139 -300
-139 -212 0 -370 107 -408 276 -21 93 -24 141 -12 219 26 172 126 295 270 333
98 25 191 22 276 -9z m836 20 c206 -44 321 -214 306 -452 -15 -230 -144 -362
-372 -384 -127 -12 -268 38 -342 120 -137 151 -136 454 1 606 86 95 258 141
407 110z"/>
<path d="M2404 2621 c-68 -42 -106 -166 -85 -283 21 -119 80 -173 183 -166 50
4 63 9 93 38 47 46 70 109 70 195 0 142 -74 235 -187 235 -25 0 -56 -8 -74
-19z"/>
<path d="M1468 2629 c-23 -12 -46 -36 -60 -62 -20 -37 -23 -57 -23 -162 0
-113 2 -123 27 -167 69 -116 248 -118 303 -2 42 88 37 251 -11 331 -45 78
-153 106 -236 62z"/>
<path d="M3358 2630 c-40 -21 -75 -70 -84 -119 l-6 -31 128 0 c71 0 146 3 167
6 32 6 37 10 37 33 0 36 -33 87 -72 111 -43 26 -120 26 -170 0z"/>
<path d="M4239 2628 c-70 -40 -103 -148 -87 -286 15 -131 89 -199 206 -190 49
4 59 10 93 45 48 52 62 104 57 218 -4 118 -32 179 -98 213 -57 28 -123 29
-171 0z"/>
</g>
</svg>
